# xmcd
#
# Track frame offsets: 
#        182
#        25202
#        42735
#        58275
#        77645
#        92515
#        112465
#        136027
#        161962
#        175490
#        192645
#
# Disc length: 2916 seconds
#
# Revision: 4
# Processed by: cddbd v1.5.2PL0 Copyright (c) Steve Scherf et al.
# Submitted via: ExactAudioCopy v1.3
#
DISCID=a40b620b
DTITLE=Deep Forest - Deep Forest
DYEAR=1993
DGENRE=New Age
TTITLE0=Deep Forest
TTITLE1=Sweet Lullaby
TTITLE2=Hunting
TTITLE3=Night Bird
TTITLE4=The First Twilight
TTITLE5=Savana Dance
TTITLE6=Desert Walk
TTITLE7=White Whisper
TTITLE8=The Second Twilight
TTITLE9=Sweet Lullaby (ambient mix)
TTITLE10=Forest Hymn
EXTD=YEAR: 1993
EXTT0=
EXTT1=
EXTT2=
EXTT3=
EXTT4=
EXTT5=
EXTT6=
EXTT7=
EXTT8=
EXTT9=
EXTT10=
PLAYORDER=
